<svg width="722" height="285" xmlns="http://www.w3.org/2000/svg" xmlns:xlink="http://www.w3.org/1999/xlink"><defs><path id="a" d="M.404 71.447v141.837l122.835 70.919 122.834-70.919V71.447L123.239.529z"/></defs><g fill="none" fill-rule="evenodd"><mask id="b" fill="#fff"><use xlink:href="#a"/></mask><g mask="url(#b)" stroke="#4D4D4D" stroke-width=".32"><path d="M16.432 80.701v123.33l106.807 61.665 106.808-61.665V80.701L123.239 19.036z"/><path d="M51.533 100.966v82.799l71.706 41.401 71.706-41.401v-82.799l-71.706-41.399-71.706 41.399z"/><path d="M33.507 90.559v103.614l89.731 51.807 89.732-51.807V90.559l-89.732-51.807z"/><path d="M-90.375 80.701v123.33l106.807 61.665 106.807-61.665V80.701L16.432 19.036zM123.239 80.701v123.33l106.807 61.665 106.807-61.665V80.701L230.046 19.036z"/><path d="M16.432 204.031v123.331l106.807 61.664 106.808-61.664V204.031l-106.808-61.665-106.807 61.665zm0-246.741V80.62l106.807 61.665L230.047 80.62V-42.71l-106.808-61.665L16.432-42.71zm106.806-61.665v493.402-493.402zm213.615 246.66H-90.375h427.228z"/></g><path stroke="#4D4D4D" stroke-width=".32" d="M.404 71.447v141.837l122.834 70.919 122.835-70.919V71.447L123.238.529z"/><g stroke-linecap="round" stroke-linejoin="round" stroke="#FFF" stroke-width="4.2"><path d="M98.936 159.305v92.298l24.304 14.032 24.302-14.032v-92.298l-24.302-14.031z"/><path d="M229.929 203.547V183.26l-106.956-61.752L16.017 183.26v20.287l39.239 22.899 67.717-39.097 67.717 39.097 39.239-22.899zM98.936 228.312l24.304 14.031 24.302-14.031H98.936z"/><path d="M98.936 216.667l24.304 14.031 24.302-14.031"/><path d="M98.936 205.021l24.304 14.031 24.302-14.031m-48.606 34.937l24.304 14.031 24.302-14.031"/><path d="M98.936 205.021l24.304 14.031 24.302-14.031"/><path d="M105.736 197.301l17.503 10.105 17.236-9.951-34.739-.154zm10.086-5.823l7.417 4.283 7.151-4.129-14.568-.154zm-16.886-68.652v25.761l24.304 14.031 24.302-14.031v-25.761l-24.302-14.031-24.304 14.031z"/><path d="M98.936 93.276v14.201l24.304 14.031 24.302-14.031V93.276L123.24 79.245 98.936 93.276zm114.034 70.986l-57.245-33.05v-8.386l56.567-32.66.678 74.096z"/><path d="M134.153 115.207v-42.77l40.79-23.55m-61.322 66.19l-.27-42.769-40.939-23.291M33.507 164.508l57.133-33.47-.072-8.385-56.737-32.281m2.387 101.978l54.421-31.881-.07-11.221m122.401 44.924l-58.034-33.531V149.42m-31.964-27.912v65.842"/></g><g fill="#FFF" fill-rule="nonzero"><path d="M295.786 46.155h5.137V88.58h-5.137V46.155zm55.871 21.212c0-13.425-7.871-21.792-18.725-21.792-10.855 0-18.725 8.367-18.725 21.792 0 13.421 7.87 21.792 18.725 21.792 10.854 0 18.725-8.371 18.725-21.792zm-4.971 0c0 11.021-6.05 16.984-13.754 16.984-7.705 0-13.755-5.963-13.755-16.984 0-11.02 6.05-16.987 13.755-16.987 7.704 0 13.754 5.966 13.754 16.987zm14.196-16.654h13.341V88.58h5.138V50.713h13.337v-4.558h-31.816v4.558zM402.09 88.58l4.267-12.017h17.154l4.266 12.017h5.384l-15.575-42.425h-5.304l-15.58 42.425h5.388zm5.883-16.575l6.796-19.138h.33l6.795 19.138h-13.921zm-78.05 62.408c-1.575-8.7-8.537-13.837-17.07-13.837-10.855 0-18.726 8.366-18.726 21.791 0 13.421 7.871 21.792 18.725 21.792 8.534 0 15.496-5.138 17.071-13.838h-5.137c-1.242 5.884-6.3 9.03-11.934 9.03-7.704 0-13.754-5.963-13.754-16.984 0-11.02 6.05-16.987 13.754-16.987 5.634 0 10.692 3.15 11.934 9.033h5.137zm48.747 7.954c0-13.425-7.872-21.791-18.726-21.791s-18.725 8.366-18.725 21.791c0 13.421 7.87 21.792 18.725 21.792 10.854 0 18.725-8.37 18.725-21.792h.001zm-4.972 0c0 11.021-6.05 16.984-13.754 16.984s-13.754-5.963-13.754-16.984c0-11.02 6.05-16.987 13.754-16.987s13.754 5.966 13.754 16.987zm51.896-21.212h-5.054v33.391h-.413l-23.2-33.391h-4.97v42.425h5.133v-33.313h.417l23.116 33.313h4.971v-42.425zm12.621 4.558h13.342v37.867h5.137v-37.867h13.342v-4.558h-31.821v4.558zm44.442 37.867h5.137v-16.575h9.28c.374 0 .724 0 1.079-.021l8.945 16.596h5.967l-9.592-17.525c5.409-1.846 7.934-6.259 7.934-11.892 0-7.5-4.471-13.008-14.417-13.008h-14.333v42.425zm5.137-21.213v-16.654h9.03c6.879 0 9.529 3.354 9.529 8.45 0 5.096-2.65 8.204-9.446 8.204h-9.113zm72.613 0c0-13.425-7.875-21.791-18.73-21.791-10.854 0-18.724 8.366-18.724 21.791 0 13.421 7.87 21.792 18.725 21.792 10.854 0 18.729-8.37 18.729-21.792zm-4.971 0c0 11.021-6.05 16.984-13.758 16.984-7.705 0-13.755-5.963-13.755-16.984 0-11.02 6.05-16.987 13.755-16.987 7.708 0 13.758 5.966 13.758 16.987zm18.254 21.213h24.858v-4.559h-19.72v-37.866h-5.138v42.425zm37.48 0h24.858v-4.559h-19.721v-37.866h-5.138v42.425h.001zm37.478 0h25.934v-4.559h-20.796v-14.416h19.142v-4.559h-19.142v-14.333h20.467v-4.558h-25.605v42.425zm52.642 0c12.925 0 20.217-8.038 20.217-21.296 0-13.175-7.292-21.13-19.638-21.13H688.2v42.426h13.091-.001zm-7.954-4.559v-33.308h8.204c9.942 0 14.996 6.296 14.996 16.57 0 10.36-5.054 16.738-15.575 16.738h-7.625zM297.523 238.58l4.267-12.017h17.154l4.267 12.017h5.387l-15.579-42.425h-5.304L292.14 238.58h5.383zm5.884-16.575l6.795-19.138h.33l6.795 19.138h-13.92zm63.495-12.592h5.305c-1.575-8.204-8.45-13.837-17.4-13.837-10.875 0-18.559 8.366-18.559 21.791 0 13.421 7.621 21.792 18.892 21.792 10.108 0 17.317-6.733 17.317-17.238v-4.554h-16.159v4.554h11.188c-.146 7.625-5.159 12.43-12.346 12.43-7.875 0-13.92-5.963-13.92-16.984 0-11.02 6.045-16.987 13.587-16.987 6.133 0 10.295 3.458 12.095 9.033zm19.005 29.167h25.933v-4.559h-20.796v-14.416h19.142v-4.559h-19.142v-14.333h20.467v-4.558h-25.604v42.425zm73.191-42.425h-5.054v33.391h-.417l-23.2-33.391h-4.97v42.425h5.137v-33.313h.413l23.12 33.313h4.971v-42.425zm12.622 4.558h13.34v37.867h5.138v-37.867h13.338v-4.558h-31.817v4.558h.001z"/></g></g></svg>