<svg width="156" height="49" xmlns="http://www.w3.org/2000/svg"><g fill="#FFF" fill-rule="nonzero"><path d="M18.655 25.309c0-.164.087-.315.229-.397l5.308-3.065a.459.459 0 0 1 .459 0l5.307 3.065c.142.082.23.233.23.397v20.158a.459.459 0 0 1-.23.397l-5.307 3.065a.459.459 0 0 1-.46 0l-5.307-3.065a.459.459 0 0 1-.23-.397V25.309zm.917 19.893l4.85 2.8 4.848-2.8V25.574l-4.849-2.8-4.85 2.8v19.628z"/><path d="M9.803 40.37a.459.459 0 0 1-.46-.001l-8.57-5.001a.459.459 0 0 1-.228-.397v-4.43c0-.164.087-.315.23-.397l23.359-13.487a.459.459 0 0 1 .458 0l23.36 13.487c.141.082.229.233.229.397v4.43a.459.459 0 0 1-.228.397l-8.57 5a.459.459 0 0 1-.46.002l-14.56-8.407-14.56 8.407zm37.46-9.564l-22.9-13.222-22.9 13.222v3.902l8.112 4.734 14.559-8.405a.459.459 0 0 1 .458 0l14.56 8.405 8.111-4.734v-3.902z"/><path d="M24.421 42.915l5.078-2.932a.459.459 0 0 1 .46.794l-5.308 3.065a.459.459 0 0 1-.46 0l-5.307-3.065a.459.459 0 1 1 .459-.794l5.078 2.932z"/><path d="M29.5 37.44a.459.459 0 0 1 .458.794l-5.307 3.064a.459.459 0 0 1-.46 0l-5.307-3.064a.459.459 0 1 1 .459-.794l5.078 2.932L29.5 37.44z"/><path d="M29.5 34.896a.459.459 0 1 1 .458.795l-5.307 3.064a.459.459 0 0 1-.46 0l-5.307-3.064a.459.459 0 1 1 .459-.795l5.078 2.932 5.078-2.932zM29.5 42.526a.459.459 0 1 1 .458.795l-5.307 3.064a.459.459 0 0 1-.46 0l-5.307-3.064a.459.459 0 1 1 .459-.795l5.078 2.932 5.078-2.932z"/><path d="M29.5 34.896a.459.459 0 1 1 .458.795l-5.307 3.064a.459.459 0 0 1-.46 0l-5.307-3.064a.459.459 0 1 1 .459-.795l5.078 2.932 5.078-2.932z"/><path d="M27.956 33.244a.459.459 0 1 1 .459.794l-3.765 2.174a.459.459 0 0 1-.458 0l-3.823-2.207a.459.459 0 0 1 .459-.795l3.593 2.075 3.535-2.041z"/><path d="M25.753 31.972a.459.459 0 0 1 .46.794l-1.563.902a.459.459 0 0 1-.458 0l-1.62-.935a.459.459 0 1 1 .458-.795l1.391.803 1.332-.769zM18.655 17.342c0-.164.087-.315.229-.397l5.308-3.065a.459.459 0 0 1 .459 0l5.307 3.065c.142.082.23.233.23.397v5.626a.459.459 0 0 1-.23.397l-5.307 3.065a.459.459 0 0 1-.46 0l-5.307-3.065a.459.459 0 0 1-.23-.397v-5.626zm.917 5.361l4.85 2.8 4.848-2.8v-5.096l-4.849-2.8-4.85 2.8v5.096z"/><path d="M18.655 10.888c0-.164.087-.315.229-.397l5.308-3.064a.459.459 0 0 1 .459 0l5.307 3.064c.142.082.23.233.23.397v3.102a.459.459 0 0 1-.23.397l-5.307 3.064a.459.459 0 0 1-.46 0l-5.307-3.064a.459.459 0 0 1-.23-.397v-3.102zm.917 2.837l4.85 2.8 4.848-2.8v-2.572l-4.849-2.8-4.85 2.8v2.572zM44.248 25.994a.459.459 0 0 1-.459.795L31.287 19.57a.459.459 0 0 1-.23-.397v-1.832c0-.164.088-.315.23-.397L43.64 9.812a.459.459 0 1 1 .459.794l-12.125 7v1.303l12.273 7.085z"/><path d="M27.263 6.602v9.076a.459.459 0 0 1-.917 0V6.337c0-.164.087-.315.23-.397L35.483.797a.459.459 0 0 1 .459.794l-8.68 5.01zM21.805 6.577L13.094 1.62a.459.459 0 0 1 .453-.798l8.941 5.087c.143.081.231.232.232.396l.06 9.34a.459.459 0 1 1-.918.007l-.057-9.076zM4.667 10.653a.459.459 0 1 1 .454-.798l12.391 7.05c.143.081.23.232.232.395l.016 1.832a.459.459 0 0 1-.227.4l-12.478 7.31a.459.459 0 0 1-.463-.792l12.248-7.176-.01-1.302-12.163-6.92zM16.827 23.115a.459.459 0 1 1 .918-.005l.015 2.45a.459.459 0 0 1-.227.399L5.647 32.922a.459.459 0 1 1-.463-.792l11.657-6.829-.014-2.186zM44.248 32.527a.459.459 0 1 1-.46.794l-12.674-7.323a.459.459 0 0 1-.229-.397v-2.45a.459.459 0 1 1 .917 0v2.185l12.446 7.19zM23.904 17.054a.459.459 0 1 1 .917 0v14.38a.459.459 0 1 1-.917 0v-14.38z"/><g><path d="M62.638 3.518h1.122v9.266h-1.122zM74.84 8.15c0-2.932-1.718-4.759-4.089-4.759-2.37 0-4.09 1.827-4.09 4.76 0 2.93 1.72 4.759 4.09 4.759s4.09-1.828 4.09-4.76zm-1.085 0c0 2.407-1.321 3.71-3.004 3.71s-3.004-1.303-3.004-3.71 1.321-3.71 3.004-3.71 3.004 1.303 3.004 3.71zM76.855 4.513h2.914v8.27h1.122v-8.27h2.913v-.995h-6.949zM85.855 12.783l.932-2.624h3.747l.931 2.624h1.176L89.24 3.518H88.08l-3.402 9.265h1.176zm1.285-3.62l1.484-4.18h.072l1.484 4.18h-3.04zM70.094 22.793c-.344-1.9-1.865-3.022-3.728-3.022-2.37 0-4.09 1.827-4.09 4.76 0 2.93 1.72 4.759 4.09 4.759 1.863 0 3.384-1.122 3.728-3.022h-1.122c-.271 1.285-1.376 1.972-2.606 1.972-1.683 0-3.004-1.303-3.004-3.71 0-2.406 1.321-3.71 3.004-3.71 1.23 0 2.335.688 2.606 1.973h1.122zM80.74 24.53c0-2.932-1.719-4.759-4.09-4.759-2.37 0-4.089 1.827-4.089 4.76 0 2.93 1.719 4.759 4.09 4.759 2.37 0 4.09-1.828 4.09-4.76zm-1.086 0c0 2.407-1.32 3.71-3.003 3.71s-3.004-1.303-3.004-3.71c0-2.406 1.321-3.71 3.004-3.71 1.682 0 3.003 1.304 3.003 3.71zM90.989 19.898h-1.104v7.292h-.09l-5.067-7.292h-1.086v9.265h1.121v-7.275h.091l5.049 7.275h1.086zM93.745 20.893h2.914v8.27h1.122v-8.27h2.914v-.995h-6.95zM103.451 29.163h1.122v-3.62h2.027c.082 0 .158 0 .235-.004l1.954 3.624h1.303l-2.095-3.827c1.182-.403 1.733-1.367 1.733-2.597 0-1.638-.976-2.841-3.149-2.841h-3.13v9.265zm1.122-4.633v-3.637h1.972c1.502 0 2.081.733 2.081 1.846s-.579 1.791-2.063 1.791h-1.99zM120.432 24.53c0-2.932-1.72-4.759-4.09-4.759-2.371 0-4.09 1.827-4.09 4.76 0 2.93 1.719 4.759 4.09 4.759 2.37 0 4.09-1.828 4.09-4.76zm-1.086 0c0 2.407-1.321 3.71-3.005 3.71-1.682 0-3.004-1.303-3.004-3.71 0-2.406 1.322-3.71 3.004-3.71 1.684 0 3.005 1.304 3.005 3.71zM123.333 29.163h5.429v-.995h-4.307v-8.27h-1.122zM131.518 29.163h5.43v-.995h-4.308v-8.27h-1.122zM139.704 29.163h5.664v-.995h-4.542v-3.149h4.18v-.995h-4.18v-3.13h4.47v-.996h-5.592v9.265zM151.2 29.163c2.823 0 4.416-1.755 4.416-4.65 0-2.878-1.593-4.615-4.289-4.615h-2.986v9.265h2.86zm-1.737-.995v-7.275h1.792c2.171 0 3.275 1.375 3.275 3.62 0 2.262-1.104 3.655-3.401 3.655h-1.666zM63.018 45.543l.932-2.624h3.746l.932 2.624h1.177l-3.403-9.265h-1.158l-3.402 9.265h1.176zm1.285-3.62l1.484-4.18h.072l1.484 4.18h-3.04zM78.17 39.173h1.159c-.344-1.791-1.846-3.022-3.8-3.022-2.376 0-4.054 1.827-4.054 4.76 0 2.93 1.665 4.759 4.126 4.759 2.208 0 3.782-1.47 3.782-3.765v-.995h-3.529v.995h2.444c-.032 1.665-1.127 2.715-2.697 2.715-1.72 0-3.04-1.303-3.04-3.71 0-2.406 1.32-3.71 2.968-3.71 1.34 0 2.248.756 2.641 1.973zM82.32 45.543h5.665v-.995h-4.542v-3.149h4.18v-.995h-4.18v-3.13h4.47v-.996H82.32v9.265zM98.306 36.278h-1.104v7.292h-.091l-5.067-7.292H90.96v9.265h1.122v-7.275h.09l5.05 7.275h1.085zM101.062 37.273h2.914v8.27h1.122v-8.27h2.913v-.995h-6.949z"/></g></g></svg>