<svg width="100" height="100" xmlns="http://www.w3.org/2000/svg"><g fill="#D0CFDD" fill-rule="nonzero"><path d="M38.585 51.057c0-.164.088-.315.23-.397l11.148-6.436a.459.459 0 0 1 .459 0L61.57 50.66c.142.082.23.233.23.397v42.339a.459.459 0 0 1-.23.397l-11.148 6.437a.459.459 0 0 1-.459 0l-11.148-6.437a.459.459 0 0 1-.23-.397V51.057zm.918 42.074l10.69 6.172 10.689-6.172V51.322l-10.69-6.171-10.69 6.171v41.809z"/><path d="M50.07 64.451L19.237 82.253a.459.459 0 0 1-.46 0l-18-10.505a.459.459 0 0 1-.228-.396v-9.306c0-.164.088-.315.23-.397L49.84 33.322a.459.459 0 0 1 .459 0l49.062 28.327c.142.082.23.233.23.397v9.306a.459.459 0 0 1-.228.396l-18 10.504a.459.459 0 0 1-.46.001L50.07 64.451zm48.604-2.14L50.07 34.249 1.467 62.31v8.777l17.542 10.238L49.84 63.524a.459.459 0 0 1 .459 0l30.832 17.802 17.542-10.238v-8.777z"/><path d="M61.111 82.315a.459.459 0 0 1 .459.794l-11.148 6.436a.459.459 0 0 1-.459 0L38.815 83.11a.459.459 0 1 1 .458-.794l10.92 6.303 10.918-6.303z"/><path d="M61.111 76.973a.459.459 0 0 1 .459.794l-11.148 6.437a.459.459 0 0 1-.459 0l-11.148-6.437a.459.459 0 1 1 .458-.794l10.92 6.304 10.918-6.304z"/><path d="M61.111 71.63a.459.459 0 1 1 .459.795l-11.148 6.436a.459.459 0 0 1-.459 0l-11.148-6.436a.459.459 0 1 1 .458-.794l10.92 6.304L61.11 71.63zM61.111 87.657a.459.459 0 0 1 .459.794l-11.148 6.437a.459.459 0 0 1-.459 0L38.815 88.45a.459.459 0 1 1 .458-.794l10.92 6.304 10.918-6.304z"/><path d="M61.111 71.63a.459.459 0 1 1 .459.795l-11.148 6.436a.459.459 0 0 1-.459 0l-11.148-6.436a.459.459 0 1 1 .458-.794l10.92 6.304L61.11 71.63z"/><path d="M57.87 68.16a.459.459 0 1 1 .458.795l-7.906 4.564a.459.459 0 0 1-.46 0l-8.028-4.635a.459.459 0 0 1 .459-.795l7.8 4.503 7.676-4.432z"/><path d="M53.243 65.489a.459.459 0 0 1 .459.794l-3.28 1.895a.459.459 0 0 1-.46 0l-3.401-1.965a.459.459 0 0 1 .458-.795l3.173 1.833 3.051-1.762zM38.585 34.324c0-.164.088-.315.23-.397l11.148-6.437a.459.459 0 0 1 .459 0l11.148 6.437c.142.082.23.233.23.397V46.14a.459.459 0 0 1-.23.397l-11.148 6.436a.459.459 0 0 1-.459 0l-11.148-6.436a.459.459 0 0 1-.23-.397V34.324zm.918 11.552l10.69 6.171 10.689-6.171V34.589l-10.69-6.172-10.69 6.172v11.287z"/><path d="M38.585 20.769c0-.164.088-.316.23-.397l11.148-6.437a.459.459 0 0 1 .459 0l11.148 6.437c.142.081.23.233.23.397v6.514a.459.459 0 0 1-.23.397l-11.148 6.437a.459.459 0 0 1-.459 0L38.815 27.68a.459.459 0 0 1-.23-.397v-6.514zm.918 6.25l10.69 6.17 10.689-6.17v-5.985l-10.69-6.172-10.69 6.172v5.984zM91.583 52.934a.459.459 0 1 1-.46.794l-26.258-15.16a.459.459 0 0 1-.23-.397v-3.847c0-.164.088-.315.23-.397l25.948-14.982a.459.459 0 0 1 .459.794l-25.72 14.85v3.317l26.03 15.028z"/><path d="M55.657 30.829a.459.459 0 1 1-.917 0v-19.62c0-.163.087-.315.23-.397L73.68.01a.459.459 0 0 1 .459.794l-18.482 10.67V30.83zM26.65.865a.459.459 0 1 1 .454-.797l18.78 10.684c.142.08.23.232.231.396l.124 19.618a.459.459 0 0 1-.917.006l-.123-19.354L26.65.865zM8.953 19.835a.459.459 0 0 1 .453-.797l26.026 14.808c.142.08.23.231.232.395l.033 3.846a.459.459 0 0 1-.227.4L9.263 53.84a.459.459 0 0 1-.464-.792L34.778 37.83l-.029-3.316L8.953 19.835zM34.747 46.447a.459.459 0 0 1 .918-.006l.032 5.147a.459.459 0 0 1-.227.4L10.506 66.61a.459.459 0 0 1-.464-.791l24.736-14.49-.03-4.883zM91.583 66.654a.459.459 0 1 1-.46.795l-26.62-15.382a.459.459 0 0 1-.23-.397v-5.147a.459.459 0 0 1 .918 0v4.882l26.392 15.25zM49.611 33.72a.459.459 0 1 1 .917 0v30.202a.459.459 0 1 1-.917 0V33.719z"/></g></svg>